<?xml version="1.0" encoding="UTF-8" standalone="no"?>
<!-- Created with Inkscape (http://www.inkscape.org/) -->

<svg
   width="95.594002mm"
   height="21.672798mm"
   viewBox="0 0 95.594002 21.672798"
   version="1.1"
   id="svg5"
   xmlns="http://www.w3.org/2000/svg"
   xmlns:svg="http://www.w3.org/2000/svg">
  <defs
     id="defs2">
    <rect
       x="323.88156"
       y="354.55847"
       width="240.10033"
       height="103.8141"
       id="rect373" />
  </defs>
  <g
     id="layer1"
     transform="translate(-46.326413,-97.011632)">
    <g
       aria-label="Capibara"
       transform="matrix(0.26942126,0,0,0.26942126,-7.0226596,3.1941423)"
       id="text371"
       style="font-weight:bold;font-size:53.3333px;font-family:'Victor Mono';-inkscape-font-specification:'Victor Mono Bold';white-space:pre;shape-inside:url(#rect373);display:inline;fill:#ffffff">
      <path
         d="m 339.15358,405.36081 q -4.99394,0 -7.85454,-1.98788 -2.86061,-2.03636 -4.12121,-6.35151 -1.26061,-4.36363 -1.26061,-11.78181 0,-7.36969 1.26061,-11.68484 1.2606,-4.36364 4.12121,-6.35151 2.8606,-1.98788 7.85454,-1.98788 3.4909,0 5.76969,0.96969 2.27879,0.9697 3.73333,3.2 1.50303,2.18182 2.5697,6.01212 l -5.28485,1.84242 q -0.82424,-2.90909 -1.6,-4.31515 -0.77575,-1.45454 -1.93939,-1.98787 -1.16364,-0.58182 -3.24848,-0.58182 -2.95758,0 -4.60606,1.35757 -1.64848,1.35758 -2.37576,4.55758 -0.67878,3.19999 -0.67878,8.96969 0,5.81818 0.67878,9.01817 0.72728,3.2 2.37576,4.60606 1.64848,1.35758 4.60606,1.35758 2.08484,0 3.24848,-0.53334 1.16364,-0.58181 1.93939,-1.93939 0.77576,-1.40606 1.6,-4.26666 l 5.28485,1.79394 q -1.06667,3.78181 -2.5697,5.96363 -1.45454,2.18182 -3.73333,3.15151 -2.2303,0.9697 -5.76969,0.9697 z"
         style="fill:#ffffff"
         id="path222" />
      <path
         d="m 363.63838,405.36081 q -4.79999,0 -6.88484,-1.26061 -2.03636,-1.2606 -2.03636,-4.36363 0,-1.30909 0.38788,-3.39394 0.72727,-3.49091 2.03636,-5.38181 1.35757,-1.9394 3.68484,-2.71515 2.32728,-0.82425 6.25455,-0.82425 h 7.70908 l 0.63031,-3.10302 q 0.48484,-2.32727 0.48484,-3.5394 0,-2.37575 -1.40606,-3.29696 -1.40606,-0.92121 -4.75151,-0.92121 -3.2,0 -4.94545,1.06666 -1.74545,1.06667 -3.15151,3.87879 l -2.47273,-0.82425 q 1.30909,-2.56969 2.71515,-3.97575 1.40606,-1.45454 3.24848,-2.03636 1.89091,-0.63031 4.70303,-0.63031 4.70303,0 6.69091,1.40606 2.03636,1.40606 2.03636,4.75152 0,1.74545 -0.53333,4.31515 l -2.66667,12.65453 q -0.38788,1.79394 -0.38788,2.71515 0,1.30909 0.67879,1.84243 0.67879,0.53333 2.27879,0.48484 l -0.29091,2.47273 q -2.66667,0 -3.73333,-0.87273 -1.06667,-0.87272 -1.01819,-3.10302 -1.8909,2.71515 -3.87878,3.68484 -1.98788,0.9697 -5.38182,0.9697 z m 0.097,-2.47273 q 2.95758,0 4.8,-0.82424 1.84242,-0.82424 2.95757,-2.71515 1.16364,-1.89091 1.89091,-5.28484 l 0.87273,-4.21818 h -7.41818 q -2.95757,0 -4.75151,0.6303 -1.74545,0.6303 -2.76364,2.13333 -1.01818,1.50303 -1.59999,4.1697 -0.29091,1.35757 -0.29091,2.42424 0,2.03636 1.40606,2.8606 1.45454,0.82424 4.89696,0.82424 z"
         style="font-style:oblique;font-weight:300;-inkscape-font-specification:'Victor Mono Light Oblique';fill:#ffffff"
         id="path224" />
      <path
         d="m 381.28683,413.50626 8.2909,-38.78786 h 2.66667 l -0.58182,2.2303 q 1.35758,-1.6 3.44242,-2.2303 2.08485,-0.67879 4.94546,-0.67879 4.4606,0 6.44848,1.79394 2.03636,1.74546 2.03636,5.96364 0,2.95757 -1.06667,8.04848 -1.2606,6.01211 -2.90909,9.35757 -1.64848,3.29696 -4.21818,4.75151 -2.52121,1.40606 -6.49696,1.40606 -3.05454,0 -4.89697,-0.9697 -1.84242,-1.01818 -2.27878,-3.24848 l -2.66667,12.36363 z m 12.65454,-10.61818 q 3.10303,0 5.0909,-1.2606 1.98788,-1.26061 3.34546,-4.12121 1.40606,-2.90909 2.52121,-8.04848 0.96969,-4.60606 0.96969,-7.17576 0,-3.19999 -1.40606,-4.4606 -1.35757,-1.30909 -4.50908,-1.30909 -3.63637,0 -6.10909,1.01818 -2.47273,0.9697 -2.90909,3.2 l -3.00606,14.15757 q -0.33939,1.79394 -0.33939,2.71515 0,2.81212 1.64848,4.07272 1.64848,1.21212 4.70303,1.21212 z"
         style="font-style:oblique;font-weight:300;-inkscape-font-specification:'Victor Mono Light Oblique';fill:#ffffff"
         id="path226" />
      <path
         d="m 431.51707,374.7184 -5.86666,27.49089 h 8.48484 l -0.53333,2.47273 h -19.63635 l 0.53333,-2.47273 h 8.48485 l 5.28484,-25.01816 h -6.0606 l 0.53333,-2.47273 z m -0.87272,-6.10909 q -1.40606,0 -1.98788,-0.38787 -0.58182,-0.38788 -0.58182,-1.30909 0,-0.48485 0.14546,-1.11515 0.33939,-1.35758 1.01818,-1.89091 0.67879,-0.53334 2.08484,-0.53334 1.40606,0 1.98788,0.38788 0.58182,0.3394 0.58182,1.26061 0,0.43636 -0.14545,1.11515 -0.29091,1.40606 -0.9697,1.93939 -0.67879,0.53333 -2.13333,0.53333 z"
         style="font-style:oblique;font-weight:300;-inkscape-font-specification:'Victor Mono Light Oblique';fill:#ffffff"
         id="path228" />
      <path
         d="m 468.414,385.77294 q -1.9394,0 -2.76364,0.0485 -1.35757,5.76969 -3.63636,10.23029 -2.2303,4.41212 -4.99394,6.88485 -2.71515,2.42424 -5.57575,2.42424 -4.21818,0 -6.0606,-2.03636 -1.84243,-2.03637 -1.84243,-6.01212 0,-2.42424 0.58182,-5.38182 l 5.57576,-26.03635 h 2.61818 l -5.52727,26.03635 q -0.63031,3.39394 -0.63031,5.47879 0,2.71515 1.21212,4.12121 1.26061,1.35757 4.1697,1.35757 2.13333,0 4.26666,-2.13333 2.18182,-2.18182 4.07273,-6.10909 1.89091,-3.92727 3.15151,-9.06666 -2.32727,-0.0485 -3.68484,-1.16363 -1.3091,-1.11515 -1.3091,-3.2 0,-1.74546 1.11516,-2.86061 1.16363,-1.16363 3.15151,-1.16363 2.03636,0 2.95757,1.11515 0.9697,1.06666 0.9697,3.39394 0,0.48484 -0.097,1.64848 h 2.71515 z m -8.24242,-4.75151 q 0,1.11515 0.87272,1.69697 0.87273,0.53333 2.42424,0.53333 0.19394,-1.2606 0.19394,-1.84242 0,-2.27879 -1.69696,-2.27879 -0.87273,0 -1.35758,0.58182 -0.43636,0.53333 -0.43636,1.30909 z"
         style="font-style:italic;font-weight:300;-inkscape-font-specification:'Victor Mono Light Italic';fill:#ffffff"
         id="path230" />
      <path
         d="m 494.64425,403.80929 q -0.67879,0.67879 -1.93939,1.11515 -1.21212,0.43637 -2.47273,0.43637 -1.55151,0 -2.52121,-0.77576 -0.92121,-0.82424 -0.92121,-2.08485 0,-1.98787 0.38788,-3.00606 -1.35758,2.66667 -3.63636,4.26667 -2.23031,1.6 -4.50909,1.6 -3.68485,0 -5.96363,-2.32727 -2.27879,-2.32727 -2.27879,-6.15758 0,-4.89696 2.47272,-10.23029 2.52122,-5.38182 6.30303,-8.96969 3.78182,-3.63637 7.36969,-3.63637 3.44243,0 5.28485,0.9697 1.84242,0.9697 1.84242,3.34545 0,0.53334 -1.06666,5.67273 -1.06667,5.13939 -3.34546,15.90302 -0.14545,0.77576 -0.14545,1.45454 0,0.77576 0.33939,1.16364 0.38788,0.33939 1.30909,0.33939 0.53334,0 1.11515,-0.29091 0.63031,-0.29091 1.16364,-0.82424 z m -15.56363,-0.92121 q 2.81212,0 5.47879,-2.95757 2.66666,-2.95758 4.16969,-7.70909 l 0.38788,-1.74545 q 0.33939,-1.55152 1.30909,-6.25454 0.9697,-4.75152 0.9697,-5.57576 0,-1.2606 -1.01818,-1.69697 -1.01818,-0.43636 -3.49091,-0.43636 -2.81212,0 -5.96363,3.29697 -3.15152,3.29697 -5.33333,8.09696 -2.13334,4.8 -2.13334,8.92121 0,2.71515 1.55152,4.41212 1.55151,1.64848 4.07272,1.64848 z"
         style="font-style:italic;font-weight:300;-inkscape-font-specification:'Victor Mono Light Italic';fill:#ffffff"
         id="path232" />
      <path
         d="m 517.33512,402.88808 q 1.30909,0 2.47273,-0.87272 1.16363,-0.92122 1.79393,-2.37576 l 2.42425,0.92121 q -0.82425,2.13333 -2.71515,3.49091 -1.84243,1.30909 -4.02424,1.30909 -2.18182,0 -3.5394,-1.40606 -1.30909,-1.45455 -1.30909,-3.8303 0,-4.12121 1.84243,-9.50303 1.84242,-5.4303 4.89696,-10.37575 -2.37575,1.21212 -4.89696,1.93939 -2.47273,0.72728 -4.26667,0.72728 h -0.82424 q -1.79394,4.12121 -5.18788,7.95151 l -1.64848,-2.13333 q 2.86061,-2.95758 4.31515,-6.20606 -2.18182,-0.53333 -3.44242,-1.69697 -1.21212,-1.16364 -1.21212,-2.81212 0,-1.79394 1.21212,-2.8606 1.21212,-1.11516 3.2,-1.11516 1.69696,0 2.76363,1.26061 1.06667,1.26061 1.06667,3.34545 0,0.72727 -0.24243,1.79394 h 0.0485 q 2.18181,0 5.52727,-1.30909 3.39393,-1.30909 6.73939,-3.49091 l 1.8909,1.30909 q -4.1212,6.15758 -6.64242,12.4606 -2.47272,6.30303 -2.47272,10.66666 0,1.26061 0.58182,2.03637 0.6303,0.77575 1.64848,0.77575 z M 504.53513,377.9184 q 0,0.82424 0.77576,1.45454 0.77575,0.58182 2.13333,0.82425 0.24242,-0.9697 0.24242,-1.69697 0,-0.9697 -0.43636,-1.55152 -0.38788,-0.6303 -1.16364,-0.6303 -0.6303,0 -1.11515,0.48485 -0.43636,0.43636 -0.43636,1.11515 z"
         style="font-style:italic;font-weight:300;-inkscape-font-specification:'Victor Mono Light Italic';fill:#ffffff"
         id="path234" />
      <path
         d="m 552.82598,403.80929 q -0.67878,0.67879 -1.93939,1.11515 -1.21212,0.43637 -2.47273,0.43637 -1.55151,0 -2.52121,-0.77576 -0.92121,-0.82424 -0.92121,-2.08485 0,-1.98787 0.38788,-3.00606 -1.35757,2.66667 -3.63636,4.26667 -2.2303,1.6 -4.50909,1.6 -3.68485,0 -5.96363,-2.32727 -2.27879,-2.32727 -2.27879,-6.15758 0,-4.89696 2.47273,-10.23029 2.52121,-5.38182 6.30302,-8.96969 3.78182,-3.63637 7.3697,-3.63637 3.44242,0 5.28484,0.9697 1.84242,0.9697 1.84242,3.34545 0,0.53334 -1.06666,5.67273 -1.06667,5.13939 -3.34545,15.90302 -0.14546,0.77576 -0.14546,1.45454 0,0.77576 0.3394,1.16364 0.38787,0.33939 1.30909,0.33939 0.53333,0 1.11515,-0.29091 0.6303,-0.29091 1.16363,-0.82424 z m -15.56362,-0.92121 q 2.81212,0 5.47878,-2.95757 2.66667,-2.95758 4.16969,-7.70909 l 0.38788,-1.74545 q 0.3394,-1.55152 1.30909,-6.25454 0.9697,-4.75152 0.9697,-5.57576 0,-1.2606 -1.01818,-1.69697 -1.01818,-0.43636 -3.49091,-0.43636 -2.81212,0 -5.96363,3.29697 -3.15151,3.29697 -5.33333,8.09696 -2.13333,4.8 -2.13333,8.92121 0,2.71515 1.55151,4.41212 1.55151,1.64848 4.07273,1.64848 z"
         style="font-style:italic;font-weight:300;-inkscape-font-specification:'Victor Mono Light Italic';fill:#ffffff"
         id="path236" />
    </g>
    <g
       id="g1128"
       transform="matrix(0.84151245,0,0,0.84151245,12.154984,18.810005)">
      <g
         id="g1143"
         style="fill:#ff7f2a">
        <path
           style="fill:#ff7f2a;stroke-width:0.264583"
           d="m 40.823059,118.62399 c 0,0 -3.092721,-16.02527 14.132521,-16.34112 3.412615,-5.656474 3.063864,-7.142908 7.154957,-8.046277 4.091092,-0.903369 14.771187,0.651558 15.512076,5.069864 0.740889,4.418303 -1.610085,5.211003 -3.646642,6.498583 -2.036557,1.28758 -4.217085,-0.26812 -4.370121,2.22181 -0.107778,1.75357 -1.176919,10.65758 -1.176919,10.65758"
           id="path113" />
        <ellipse
           style="fill:#ff7f2a;stroke-width:0.264583"
           id="path692"
           cx="61.451553"
           cy="94.434746"
           rx="1.316975"
           ry="1.0345516" />
        <ellipse
           style="fill:#ff7f2a;stroke-width:0.264583"
           id="path692-3"
           cx="63.725498"
           cy="93.964401"
           rx="1.316975"
           ry="1.0345516" />
      </g>
    </g>
  </g>
</svg>
